  0
SECTION
  2
HEADER
  9
$ACADVER
  1
AC1014
  9
$HANDSEED
  5
FFFF
  9
$MEASUREMENT
 70
     1
  0
ENDSEC
  0
SECTION
  2
TABLES
  0
TABLE
  2
VPORT
  5
8
330
0
100
AcDbSymbolTable
 70
     4
  0
VPORT
  5
2E
330
8
100
AcDbSymbolTableRecord
100
AcDbViewportTableRecord
  2
*ACTIVE
 70
     0
 10
0.0
 20
0.0
 11
1.0
 21
1.0
 12
210.0
 22
148.5
 13
0.0
 23
0.0
 14
10.0
 24
10.0
 15
10.0
 25
10.0
 16
0.0
 26
0.0
 36
1.0
 17
0.0
 27
0.0
 37
0.0
 40
341.0
 41
1.24
 42
50.0
 43
0.0
 44
0.0
 50
0.0
 51
0.0
 71
     0
 72
   100
 73
     1
 74
     3
 75
     0
 76
     0
 77
     0
 78
     0
  0
ENDTAB
  0
TABLE
  2
LTYPE
  5
5
330
0
100
AcDbSymbolTable
 70
     1
  0
LTYPE
  5
14
330
5
100
AcDbSymbolTableRecord
100
AcDbLinetypeTableRecord
  2
BYBLOCK
 70
     0
  3

 72
    65
 73
     0
 40
0.0
  0
LTYPE
  5
15
330
5
100
AcDbSymbolTableRecord
100
AcDbLinetypeTableRecord
  2
BYLAYER
 70
     0
  3

 72
    65
 73
     0
 40
0.0
  0
LTYPE
  5
16
330
5
100
AcDbSymbolTableRecord
100
AcDbLinetypeTableRecord
  2
CONTINUOUS
 70
     0
  3
Solid line
 72
    65
 73
     0
 40
0.0
  0
ENDTAB
  0
TABLE
  2
LAYER
  5
2
100
AcDbSymbolTable
 70
1
  0
LAYER
  5
50
100
AcDbSymbolTableRecord
100
AcDbLayerTableRecord
  2
0
 70
0
  6
CONTINUOUS
  0
ENDTAB
  0
TABLE
  2
STYLE
  5
3
330
0
100
AcDbSymbolTable
 70
     1
  0
STYLE
  5
11
330
3
100
AcDbSymbolTableRecord
100
AcDbTextStyleTableRecord
  2
STANDARD
 70
     0
 40
0.0
 41
1.0
 50
0.0
 71
     0
 42
2.5
  3
txt
  4

  0
ENDTAB
  0
TABLE
  2
VIEW
  5
6
330
0
100
AcDbSymbolTable
 70
     0
  0
ENDTAB
  0
TABLE
  2
UCS
  5
7
330
0
100
AcDbSymbolTable
 70
     0
  0
ENDTAB
  0
TABLE
  2
APPID
  5
9
330
0
100
AcDbSymbolTable
 70
     2
  0
APPID
  5
12
330
9
100
AcDbSymbolTableRecord
100
AcDbRegAppTableRecord
  2
ACAD
 70
     0
  0
ENDTAB
  0
TABLE
  2
DIMSTYLE
  5
A
330
0
100
AcDbSymbolTable
 70
     1
  0
DIMSTYLE
105
27
330
A
100
AcDbSymbolTableRecord
100
AcDbDimStyleTableRecord
  2
ISO-25
 70
     0
  3

  4

  5

  6

  7

 40
1.0
 41
2.5
 42
0.625
 43
3.75
 44
1.25
 45
0.0
 46
0.0
 47
0.0
 48
0.0
140
2.5
141
2.5
142
0.0
143
0.03937007874016
144
1.0
145
0.0
146
1.0
147
0.625
 71
     0
 72
     0
 73
     0
 74
     0
 75
     0
 76
     0
 77
     1
 78
     8
170
     0
171
     3
172
     1
173
     0
174
     0
175
     0
176
     0
177
     0
178
     0
270
     2
271
     2
272
     2
273
     2
274
     3
340
11
275
     0
280
     0
281
     0
282
     0
283
     0
284
     8
285
     0
286
     0
287
     3
288
     0
  0
ENDTAB
  0
TABLE
  2
BLOCK_RECORD
  5
1
330
0
100
AcDbSymbolTable
 70
     1
  0
BLOCK_RECORD
  5
1F
330
1
100
AcDbSymbolTableRecord
100
AcDbBlockTableRecord
  2
*MODEL_SPACE
  0
BLOCK_RECORD
  5
1B
330
1
100
AcDbSymbolTableRecord
100
AcDbBlockTableRecord
  2
*PAPER_SPACE
  0
ENDTAB
  0
ENDSEC
  0
SECTION
  2
BLOCKS
  0
BLOCK
  5
20
330
1F
100
AcDbEntity
  8
0
100
AcDbBlockBegin
  2
*MODEL_SPACE
 70
     0
 10
0.0
 20
0.0
 30
0.0
  3
*MODEL_SPACE
  1

  0
ENDBLK
  5
21
330
1F
100
AcDbEntity
  8
0
100
AcDbBlockEnd
  0
BLOCK
  5
1C
330
1B
100
AcDbEntity
 67
     1
  8
0
100
AcDbBlockBegin
  2
*PAPER_SPACE
  1

  0
ENDBLK
  5
1D
330
1B
100
AcDbEntity
 67
     1
  8
0
100
AcDbBlockEnd
  0
ENDSEC
  0
SECTION
  2
ENTITIES
  0
LINE
  5
100
100
AcDbEntity
  8
0
 62
7
100
AcDbLine
 10
20.891360
 20
1.396792
 30
0.0
 11
20.891360
 21
0.935454
 31
0.0
  0
LINE
  5
101
100
AcDbEntity
  8
0
 62
7
100
AcDbLine
 10
20.891360
 20
0.935454
 30
0.0
 11
24.068781
 21
0.935454
 31
0.0
  0
LINE
  5
102
100
AcDbEntity
  8
0
 62
7
100
AcDbLine
 10
24.068781
 20
0.935454
 30
0.0
 11
24.068781
 21
3.022165
 31
0.0
  0
LINE
  5
103
100
AcDbEntity
  8
0
 62
7
100
AcDbLine
 10
24.068781
 20
3.022165
 30
0.0
 11
23.604387
 21
3.022165
 31
0.0
  0
LINE
  5
104
100
AcDbEntity
  8
0
 62
7
100
AcDbLine
 10
23.604387
 20
3.022165
 30
0.0
 11
23.604387
 21
1.396792
 31
0.0
  0
LINE
  5
105
100
AcDbEntity
  8
0
 62
7
100
AcDbLine
 10
23.604387
 20
1.396792
 30
0.0
 11
20.891360
 21
1.396792
 31
0.0
  0
LINE
  5
106
100
AcDbEntity
  8
0
 62
7
100
AcDbLine
 10
20.891360
 20
8.286297
 30
0.0
 11
20.891360
 21
7.824958
 31
0.0
  0
LINE
  5
107
100
AcDbEntity
  8
0
 62
7
100
AcDbLine
 10
20.891360
 20
7.824958
 30
0.0
 11
23.604387
 21
7.824958
 31
0.0
  0
LINE
  5
108
100
AcDbEntity
  8
0
 62
7
100
AcDbLine
 10
23.604387
 20
7.824958
 30
0.0
 11
23.604387
 21
6.199586
 31
0.0
  0
LINE
  5
109
100
AcDbEntity
  8
0
 62
7
100
AcDbLine
 10
23.604387
 20
6.199586
 30
0.0
 11
24.065725
 21
6.199586
 31
0.0
  0
LINE
  5
10a
100
AcDbEntity
  8
0
 62
7
100
AcDbLine
 10
24.065725
 20
6.199586
 30
0.0
 11
24.065725
 21
8.286297
 31
0.0
  0
LINE
  5
10b
100
AcDbEntity
  8
0
 62
7
100
AcDbLine
 10
24.065725
 20
8.286297
 30
0.0
 11
20.891360
 21
8.286297
 31
0.0
  0
LINE
  5
10c
100
AcDbEntity
  8
0
 62
7
100
AcDbLine
 10
19.253766
 20
4.705587
 30
0.0
 11
19.253766
 21
5.781020
 31
0.0
  0
LINE
  5
10d
100
AcDbEntity
  8
0
 62
7
100
AcDbLine
 10
19.253766
 20
5.781020
 30
0.0
 11
19.980904
 21
5.781020
 31
0.0
  0
SPLINE
  5
10e
100
AcDbEntity
  8
0
 62
7
100
AcDbSpline
 70
8
 71
3
 72
8
 73
4
 74
0
 40
0
 40
0
 40
0
 40
0
 40
1
 40
1
 40
1
 40
1
 10
19.980904
 20
5.781020
 30
0.0
 10
20.335311
 20
5.781020
 30
0.0
 10
20.460573
 20
5.661868
 30
0.0
 10
20.460573
 20
5.341071
 30
0.0
  0
LINE
  5
10f
100
AcDbEntity
  8
0
 62
7
100
AcDbLine
 10
20.460573
 20
5.341071
 30
0.0
 11
20.460573
 21
5.151648
 31
0.0
  0
SPLINE
  5
110
100
AcDbEntity
  8
0
 62
7
100
AcDbSpline
 70
8
 71
3
 72
8
 73
4
 74
0
 40
0
 40
0
 40
0
 40
0
 40
1
 40
1
 40
1
 40
1
 10
20.460573
 20
5.151648
 30
0.0
 10
20.460573
 20
4.821684
 30
0.0
 10
20.338365
 20
4.708643
 30
0.0
 10
19.980904
 20
4.708643
 30
0.0
  0
LINE
  5
111
100
AcDbEntity
  8
0
 62
7
100
AcDbLine
 10
19.980904
 20
4.708643
 30
0.0
 11
19.253766
 21
4.705587
 31
0.0
  0
SPLINE
  5
112
100
AcDbEntity
  8
0
 62
7
100
AcDbSpline
 70
8
 71
3
 72
8
 73
4
 74
0
 40
0
 40
0
 40
0
 40
0
 40
1
 40
1
 40
1
 40
1
 10
20.405579
 20
4.516164
 30
0.0
 10
20.735544
 20
4.601709
 30
0.0
 10
20.967739
 20
4.910285
 30
0.0
 10
20.967739
 20
5.279966
 30
0.0
  0
SPLINE
  5
113
100
AcDbEntity
  8
0
 62
7
100
AcDbSpline
 70
8
 71
3
 72
8
 73
4
 74
0
 40
0
 40
0
 40
0
 40
0
 40
1
 40
1
 40
1
 40
1
 10
20.967739
 20
5.279966
 30
0.0
 10
20.967739
 20
5.509108
 30
0.0
 10
20.873027
 20
5.732139
 30
0.0
 10
20.704990
 20
5.887954
 30
0.0
  0
SPLINE
  5
114
100
AcDbEntity
  8
0
 62
7
100
AcDbSpline
 70
8
 71
3
 72
8
 73
4
 74
0
 40
0
 40
0
 40
0
 40
0
 40
1
 40
1
 40
1
 40
1
 10
20.704990
 20
5.887954
 30
0.0
 10
20.488071
 20
6.095708
 30
0.0
 10
20.197826
 20
6.199586
 30
0.0
 10
19.818979
 20
6.199586
 30
0.0
  0
LINE
  5
115
100
AcDbEntity
  8
0
 62
7
100
AcDbLine
 10
19.818979
 20
6.199586
 30
0.0
 11
18.798540
 21
6.199586
 31
0.0
  0
LINE
  5
116
100
AcDbEntity
  8
0
 62
7
100
AcDbLine
 10
18.798540
 20
6.199586
 30
0.0
 11
18.798540
 21
3.022165
 31
0.0
  0
LINE
  5
117
100
AcDbEntity
  8
0
 62
7
100
AcDbLine
 10
18.798540
 20
3.022165
 30
0.0
 11
19.253766
 21
3.022165
 31
0.0
  0
LINE
  5
118
100
AcDbEntity
  8
0
 62
7
100
AcDbLine
 10
19.253766
 20
3.022165
 30
0.0
 11
19.253766
 21
4.290077
 31
0.0
  0
LINE
  5
119
100
AcDbEntity
  8
0
 62
7
100
AcDbLine
 10
19.253766
 20
4.290077
 30
0.0
 11
19.935079
 21
4.290077
 31
0.0
  0
SPLINE
  5
11a
100
AcDbEntity
  8
0
 62
7
100
AcDbSpline
 70
8
 71
3
 72
8
 73
4
 74
0
 40
0
 40
0
 40
0
 40
0
 40
1
 40
1
 40
1
 40
1
 10
19.935079
 20
4.290077
 30
0.0
 10
20.283371
 20
4.290077
 30
0.0
 10
20.423912
 20
4.143427
 30
0.0
 10
20.423912
 20
3.782913
 30
0.0
  0
LINE
  5
11b
100
AcDbEntity
  8
0
 62
7
100
AcDbLine
 10
20.423912
 20
3.782913
 30
0.0
 11
20.423912
 21
3.025221
 31
0.0
  0
LINE
  5
11c
100
AcDbEntity
  8
0
 62
7
100
AcDbLine
 10
20.423912
 20
3.025221
 30
0.0
 11
20.888304
 21
3.025221
 31
0.0
  0
LINE
  5
11d
100
AcDbEntity
  8
0
 62
7
100
AcDbLine
 10
20.888304
 20
3.025221
 30
0.0
 11
20.888304
 21
3.709587
 31
0.0
  0
SPLINE
  5
11e
100
AcDbEntity
  8
0
 62
7
100
AcDbSpline
 70
8
 71
3
 72
8
 73
4
 74
0
 40
0
 40
0
 40
0
 40
0
 40
1
 40
1
 40
1
 40
1
 10
20.888304
 20
3.709587
 30
0.0
 10
20.888304
 20
4.207588
 30
0.0
 10
20.769151
 20
4.400065
 30
0.0
 10
20.408635
 20
4.455058
 30
0.0
  0
LINE
  5
11f
100
AcDbEntity
  8
0
 62
7
100
AcDbLine
 10
20.408635
 20
4.455058
 30
0.0
 11
20.405579
 21
4.516164
 31
0.0
  0
LINE
  5
120
100
AcDbEntity
  8
0
 62
7
100
AcDbLine
 10
16.583509
 20
4.409230
 30
0.0
 11
17.982798
 21
4.409230
 31
0.0
  0
LINE
  5
121
100
AcDbEntity
  8
0
 62
7
100
AcDbLine
 10
17.982798
 20
4.409230
 30
0.0
 11
17.982798
 21
4.827795
 31
0.0
  0
LINE
  5
122
100
AcDbEntity
  8
0
 62
7
100
AcDbLine
 10
17.982798
 20
4.827795
 30
0.0
 11
16.583509
 21
4.827795
 31
0.0
  0
LINE
  5
123
100
AcDbEntity
  8
0
 62
7
100
AcDbLine
 10
16.583509
 20
4.827795
 30
0.0
 11
16.583509
 21
5.781020
 31
0.0
  0
LINE
  5
124
100
AcDbEntity
  8
0
 62
7
100
AcDbLine
 10
16.583509
 20
5.781020
 30
0.0
 11
18.117227
 21
5.781020
 31
0.0
  0
LINE
  5
125
100
AcDbEntity
  8
0
 62
7
100
AcDbLine
 10
18.117227
 20
5.781020
 30
0.0
 11
18.117227
 21
6.199586
 31
0.0
  0
LINE
  5
126
100
AcDbEntity
  8
0
 62
7
100
AcDbLine
 10
18.117227
 20
6.199586
 30
0.0
 11
16.122173
 21
6.199586
 31
0.0
  0
LINE
  5
127
100
AcDbEntity
  8
0
 62
7
100
AcDbLine
 10
16.122173
 20
6.199586
 30
0.0
 11
16.122173
 21
3.022165
 31
0.0
  0
LINE
  5
128
100
AcDbEntity
  8
0
 62
7
100
AcDbLine
 10
16.122173
 20
3.022165
 30
0.0
 11
18.187495
 21
3.022165
 31
0.0
  0
LINE
  5
129
100
AcDbEntity
  8
0
 62
7
100
AcDbLine
 10
18.187495
 20
3.022165
 30
0.0
 11
18.187495
 21
3.440728
 31
0.0
  0
LINE
  5
12a
100
AcDbEntity
  8
0
 62
7
100
AcDbLine
 10
18.187495
 20
3.440728
 30
0.0
 11
16.583509
 21
3.440728
 31
0.0
  0
LINE
  5
12b
100
AcDbEntity
  8
0
 62
7
100
AcDbLine
 10
16.583509
 20
3.440728
 30
0.0
 11
16.583509
 21
4.409230
 31
0.0
  0
LINE
  5
12c
100
AcDbEntity
  8
0
 62
7
100
AcDbLine
 10
15.065070
 20
4.244249
 30
0.0
 11
15.065070
 21
4.027330
 31
0.0
  0
SPLINE
  5
12d
100
AcDbEntity
  8
0
 62
7
100
AcDbSpline
 70
8
 71
3
 72
8
 73
4
 74
0
 40
0
 40
0
 40
0
 40
0
 40
1
 40
1
 40
1
 40
1
 10
15.065070
 20
4.027330
 30
0.0
 10
15.065070
 20
3.569048
 30
0.0
 10
14.897034
 20
3.419342
 30
0.0
 10
14.475415
 20
3.419342
 30
0.0
  0
LINE
  5
12e
100
AcDbEntity
  8
0
 62
7
100
AcDbLine
 10
14.475415
 20
3.419342
 30
0.0
 11
14.374593
 21
3.419342
 31
0.0
  0
SPLINE
  5
12f
100
AcDbEntity
  8
0
 62
7
100
AcDbSpline
 70
8
 71
3
 72
8
 73
4
 74
0
 40
0
 40
0
 40
0
 40
0
 40
1
 40
1
 40
1
 40
1
 10
14.374593
 20
3.419342
 30
0.0
 10
13.952971
 20
3.419342
 30
0.0
 10
13.748274
 20
3.556827
 30
0.0
 10
13.748274
 20
4.186199
 30
0.0
  0
LINE
  5
130
100
AcDbEntity
  8
0
 62
7
100
AcDbLine
 10
13.748274
 20
4.186199
 30
0.0
 11
13.748274
 21
5.038605
 31
0.0
  0
SPLINE
  5
131
100
AcDbEntity
  8
0
 62
7
100
AcDbSpline
 70
8
 71
3
 72
8
 73
4
 74
0
 40
0
 40
0
 40
0
 40
0
 40
1
 40
1
 40
1
 40
1
 10
13.748274
 20
5.038605
 30
0.0
 10
13.748274
 20
5.674089
 30
0.0
 10
13.962139
 20
5.805463
 30
0.0
 10
14.383758
 20
5.805463
 30
0.0
  0
LINE
  5
132
100
AcDbEntity
  8
0
 62
7
100
AcDbLine
 10
14.383758
 20
5.805463
 30
0.0
 11
14.475415
 21
5.805463
 31
0.0
  0
SPLINE
  5
133
100
AcDbEntity
  8
0
 62
7
100
AcDbSpline
 70
8
 71
3
 72
8
 73
4
 74
0
 40
0
 40
0
 40
0
 40
0
 40
1
 40
1
 40
1
 40
1
 10
14.475415
 20
5.805463
 30
0.0
 10
14.887866
 20
5.805463
 30
0.0
 10
15.019242
 20
5.652703
 30
0.0
 10
15.025351
 20
5.224972
 30
0.0
  0
LINE
  5
134
100
AcDbEntity
  8
0
 62
7
100
AcDbLine
 10
15.025351
 20
5.224972
 30
0.0
 11
15.523350
 21
5.224972
 31
0.0
  0
SPLINE
  5
135
100
AcDbEntity
  8
0
 62
7
100
AcDbSpline
 70
8
 71
3
 72
8
 73
4
 74
0
 40
0
 40
0
 40
0
 40
0
 40
1
 40
1
 40
1
 40
1
 10
15.523350
 20
5.224972
 30
0.0
 10
15.477524
 20
5.851291
 30
0.0
 10
15.062014
 20
6.245414
 30
0.0
 10
14.435695
 20
6.245414
 30
0.0
  0
SPLINE
  5
136
100
AcDbEntity
  8
0
 62
7
100
AcDbSpline
 70
8
 71
3
 72
8
 73
4
 74
0
 40
0
 40
0
 40
0
 40
0
 40
1
 40
1
 40
1
 40
1
 10
14.435695
 20
6.245414
 30
0.0
 10
14.130173
 20
6.245414
 30
0.0
 10
13.876591
 20
6.150702
 30
0.0
 10
13.687168
 20
5.967390
 30
0.0
  0
SPLINE
  5
137
100
AcDbEntity
  8
0
 62
7
100
AcDbSpline
 70
8
 71
3
 72
8
 73
4
 74
0
 40
0
 40
0
 40
0
 40
0
 40
1
 40
1
 40
1
 40
1
 10
13.687168
 20
5.967390
 30
0.0
 10
13.399979
 20
5.698531
 30
0.0
 10
13.244163
 20
5.246358
 30
0.0
 10
13.244163
 20
4.610874
 30
0.0
  0
SPLINE
  5
138
100
AcDbEntity
  8
0
 62
7
100
AcDbSpline
 70
8
 71
3
 72
8
 73
4
 74
0
 40
0
 40
0
 40
0
 40
0
 40
1
 40
1
 40
1
 40
1
 10
13.244163
 20
4.610874
 30
0.0
 10
13.244163
 20
3.999832
 30
0.0
 10
13.381648
 20
3.544606
 30
0.0
 10
13.662726
 20
3.263526
 30
0.0
  0
SPLINE
  5
139
100
AcDbEntity
  8
0
 62
7
100
AcDbSpline
 70
8
 71
3
 72
8
 73
4
 74
0
 40
0
 40
0
 40
0
 40
0
 40
1
 40
1
 40
1
 40
1
 10
13.662726
 20
3.263526
 30
0.0
 10
13.855205
 20
3.080215
 30
0.0
 10
14.108787
 20
2.976336
 30
0.0
 10
14.374593
 20
2.976336
 30
0.0
  0
SPLINE
  5
13a
100
AcDbEntity
  8
0
 62
7
100
AcDbSpline
 70
8
 71
3
 72
8
 73
4
 74
0
 40
0
 40
0
 40
0
 40
0
 40
1
 40
1
 40
1
 40
1
 10
14.374593
 20
2.976336
 30
0.0
 10
14.646505
 20
2.976336
 30
0.0
 10
14.897034
 20
3.086324
 30
0.0
 10
15.022295
 20
3.321575
 30
0.0
  0
LINE
  5
13b
100
AcDbEntity
  8
0
 62
7
100
AcDbLine
 10
15.022295
 20
3.321575
 30
0.0
 11
15.086457
 21
3.321575
 31
0.0
  0
LINE
  5
13c
100
AcDbEntity
  8
0
 62
7
100
AcDbLine
 10
15.086457
 20
3.321575
 30
0.0
 11
15.086457
 21
3.019109
 31
0.0
  0
LINE
  5
13d
100
AcDbEntity
  8
0
 62
7
100
AcDbLine
 10
15.086457
 20
3.019109
 30
0.0
 11
15.505020
 21
3.019109
 31
0.0
  0
LINE
  5
13e
100
AcDbEntity
  8
0
 62
7
100
AcDbLine
 10
15.505020
 20
3.019109
 30
0.0
 11
15.505020
 21
4.656703
 31
0.0
  0
LINE
  5
13f
100
AcDbEntity
  8
0
 62
7
100
AcDbLine
 10
15.505020
 20
4.656703
 30
0.0
 11
14.273770
 21
4.656703
 31
0.0
  0
LINE
  5
140
100
AcDbEntity
  8
0
 62
7
100
AcDbLine
 10
14.273770
 20
4.656703
 30
0.0
 11
14.273770
 21
4.241196
 31
0.0
  0
LINE
  5
141
100
AcDbEntity
  8
0
 62
7
100
AcDbLine
 10
14.273770
 20
4.241196
 30
0.0
 11
15.065070
 21
4.241196
 31
0.0
  0
LINE
  5
142
100
AcDbEntity
  8
0
 62
7
100
AcDbLine
 10
15.065070
 20
4.241196
 30
0.0
 11
15.065070
 21
4.244249
 31
0.0
  0
LINE
  5
143
100
AcDbEntity
  8
0
 62
7
100
AcDbLine
 10
11.062742
 20
5.781020
 30
0.0
 11
11.557686
 21
5.781020
 31
0.0
  0
SPLINE
  5
144
100
AcDbEntity
  8
0
 62
7
100
AcDbSpline
 70
8
 71
3
 72
8
 73
4
 74
0
 40
0
 40
0
 40
0
 40
0
 40
1
 40
1
 40
1
 40
1
 10
11.557686
 20
5.781020
 30
0.0
 10
12.025133
 20
5.781020
 30
0.0
 10
12.278716
 20
5.661868
 30
0.0
 10
12.278716
 20
5.029440
 30
0.0
  0
LINE
  5
145
100
AcDbEntity
  8
0
 62
7
100
AcDbLine
 10
12.278716
 20
5.029440
 30
0.0
 11
12.278716
 21
4.195367
 31
0.0
  0
SPLINE
  5
146
100
AcDbEntity
  8
0
 62
7
100
AcDbSpline
 70
8
 71
3
 72
8
 73
4
 74
0
 40
0
 40
0
 40
0
 40
0
 40
1
 40
1
 40
1
 40
1
 10
12.278716
 20
4.195367
 30
0.0
 10
12.278716
 20
3.559883
 30
0.0
 10
12.025133
 20
3.440728
 30
0.0
 10
11.557686
 20
3.440728
 30
0.0
  0
LINE
  5
147
100
AcDbEntity
  8
0
 62
7
100
AcDbLine
 10
11.557686
 20
3.440728
 30
0.0
 11
11.062742
 21
3.440728
 31
0.0
  0
LINE
  5
148
100
AcDbEntity
  8
0
 62
7
100
AcDbLine
 10
11.062742
 20
3.440728
 30
0.0
 11
11.062742
 21
5.781020
 31
0.0
  0
SPLINE
  5
149
100
AcDbEntity
  8
0
 62
7
100
AcDbSpline
 70
8
 71
3
 72
8
 73
4
 74
0
 40
0
 40
0
 40
0
 40
0
 40
1
 40
1
 40
1
 40
1
 10
11.597404
 20
3.022165
 30
0.0
 10
12.465084
 20
3.022165
 30
0.0
 10
12.785881
 20
3.679035
 30
0.0
 10
12.785881
 20
4.610874
 30
0.0
  0
SPLINE
  5
14a
100
AcDbEntity
  8
0
 62
7
100
AcDbSpline
 70
8
 71
3
 72
8
 73
4
 74
0
 40
0
 40
0
 40
0
 40
0
 40
1
 40
1
 40
1
 40
1
 10
12.785881
 20
4.610874
 30
0.0
 10
12.785881
 20
5.554937
 30
0.0
 10
12.440642
 20
6.199586
 30
0.0
 10
11.588238
 20
6.199586
 30
0.0
  0
LINE
  5
14b
100
AcDbEntity
  8
0
 62
7
100
AcDbLine
 10
11.588238
 20
6.199586
 30
0.0
 11
10.607515
 21
6.199586
 31
0.0
  0
LINE
  5
14c
100
AcDbEntity
  8
0
 62
7
100
AcDbLine
 10
10.607515
 20
6.199586
 30
0.0
 11
10.607515
 21
3.022165
 31
0.0
  0
LINE
  5
14d
100
AcDbEntity
  8
0
 62
7
100
AcDbLine
 10
10.607515
 20
3.022165
 30
0.0
 11
11.597404
 21
3.022165
 31
0.0
  0
LINE
  5
14e
100
AcDbEntity
  8
0
 62
7
100
AcDbLine
 10
8.416928
 20
4.409230
 30
0.0
 11
9.816215
 21
4.409230
 31
0.0
  0
LINE
  5
14f
100
AcDbEntity
  8
0
 62
7
100
AcDbLine
 10
9.816215
 20
4.409230
 30
0.0
 11
9.816215
 21
4.827795
 31
0.0
  0
LINE
  5
150
100
AcDbEntity
  8
0
 62
7
100
AcDbLine
 10
9.816215
 20
4.827795
 30
0.0
 11
8.416928
 21
4.827795
 31
0.0
  0
LINE
  5
151
100
AcDbEntity
  8
0
 62
7
100
AcDbLine
 10
8.416928
 20
4.827795
 30
0.0
 11
8.416928
 21
5.781020
 31
0.0
  0
LINE
  5
152
100
AcDbEntity
  8
0
 62
7
100
AcDbLine
 10
8.416928
 20
5.781020
 30
0.0
 11
9.950644
 21
5.781020
 31
0.0
  0
LINE
  5
153
100
AcDbEntity
  8
0
 62
7
100
AcDbLine
 10
9.950644
 20
5.781020
 30
0.0
 11
9.950644
 21
6.199586
 31
0.0
  0
LINE
  5
154
100
AcDbEntity
  8
0
 62
7
100
AcDbLine
 10
9.950644
 20
6.199586
 30
0.0
 11
7.952536
 21
6.199586
 31
0.0
  0
LINE
  5
155
100
AcDbEntity
  8
0
 62
7
100
AcDbLine
 10
7.952536
 20
6.199586
 30
0.0
 11
7.952536
 21
3.022165
 31
0.0
  0
LINE
  5
156
100
AcDbEntity
  8
0
 62
7
100
AcDbLine
 10
7.952536
 20
3.022165
 30
0.0
 11
10.017859
 21
3.022165
 31
0.0
  0
LINE
  5
157
100
AcDbEntity
  8
0
 62
7
100
AcDbLine
 10
10.017859
 20
3.022165
 30
0.0
 11
10.017859
 21
3.440728
 31
0.0
  0
LINE
  5
158
100
AcDbEntity
  8
0
 62
7
100
AcDbLine
 10
10.017859
 20
3.440728
 30
0.0
 11
8.416928
 21
3.440728
 31
0.0
  0
LINE
  5
159
100
AcDbEntity
  8
0
 62
7
100
AcDbLine
 10
8.416928
 20
3.440728
 30
0.0
 11
8.416928
 21
4.409230
 31
0.0
  0
LINE
  5
15a
100
AcDbEntity
  8
0
 62
7
100
AcDbLine
 10
5.737507
 20
6.199586
 30
0.0
 11
5.273115
 21
6.199586
 31
0.0
  0
LINE
  5
15b
100
AcDbEntity
  8
0
 62
7
100
AcDbLine
 10
5.273115
 20
6.199586
 30
0.0
 11
5.273115
 21
3.022165
 31
0.0
  0
LINE
  5
15c
100
AcDbEntity
  8
0
 62
7
100
AcDbLine
 10
5.273115
 20
3.022165
 30
0.0
 11
7.359824
 21
3.022165
 31
0.0
  0
LINE
  5
15d
100
AcDbEntity
  8
0
 62
7
100
AcDbLine
 10
7.359824
 20
3.022165
 30
0.0
 11
7.359824
 21
3.440728
 31
0.0
  0
LINE
  5
15e
100
AcDbEntity
  8
0
 62
7
100
AcDbLine
 10
7.359824
 20
3.440728
 30
0.0
 11
5.737507
 21
3.440728
 31
0.0
  0
LINE
  5
15f
100
AcDbEntity
  8
0
 62
7
100
AcDbLine
 10
5.737507
 20
3.440728
 30
0.0
 11
5.737507
 21
6.199586
 31
0.0
  0
LINE
  5
160
100
AcDbEntity
  8
0
 62
7
100
AcDbLine
 10
2.095694
 20
3.022165
 30
0.0
 11
2.095694
 21
0.935454
 31
0.0
  0
LINE
  5
161
100
AcDbEntity
  8
0
 62
7
100
AcDbLine
 10
2.095694
 20
0.935454
 30
0.0
 11
5.273115
 21
0.935454
 31
0.0
  0
LINE
  5
162
100
AcDbEntity
  8
0
 62
7
100
AcDbLine
 10
5.273115
 20
0.935454
 30
0.0
 11
5.273115
 21
1.399848
 31
0.0
  0
LINE
  5
163
100
AcDbEntity
  8
0
 62
7
100
AcDbLine
 10
5.273115
 20
1.399848
 30
0.0
 11
2.557031
 21
1.399848
 31
0.0
  0
LINE
  5
164
100
AcDbEntity
  8
0
 62
7
100
AcDbLine
 10
2.557031
 20
1.399848
 30
0.0
 11
2.557031
 21
3.025221
 31
0.0
  0
LINE
  5
165
100
AcDbEntity
  8
0
 62
7
100
AcDbLine
 10
2.557031
 20
3.025221
 30
0.0
 11
2.095694
 21
3.025221
 31
0.0
  0
LINE
  5
166
100
AcDbEntity
  8
0
 62
7
100
AcDbLine
 10
2.095694
 20
3.025221
 30
0.0
 11
2.095694
 21
3.022165
 31
0.0
  0
LINE
  5
167
100
AcDbEntity
  8
0
 62
7
100
AcDbLine
 10
2.095694
 20
8.286297
 30
0.0
 11
2.095694
 21
6.199586
 31
0.0
  0
LINE
  5
168
100
AcDbEntity
  8
0
 62
7
100
AcDbLine
 10
2.095694
 20
6.199586
 30
0.0
 11
2.557031
 21
6.199586
 31
0.0
  0
LINE
  5
169
100
AcDbEntity
  8
0
 62
7
100
AcDbLine
 10
2.557031
 20
6.199586
 30
0.0
 11
2.557031
 21
7.824958
 31
0.0
  0
LINE
  5
16a
100
AcDbEntity
  8
0
 62
7
100
AcDbLine
 10
2.557031
 20
7.824958
 30
0.0
 11
5.270059
 21
7.824958
 31
0.0
  0
LINE
  5
16b
100
AcDbEntity
  8
0
 62
7
100
AcDbLine
 10
5.270059
 20
7.824958
 30
0.0
 11
5.270059
 21
8.286297
 31
0.0
  0
LINE
  5
16c
100
AcDbEntity
  8
0
 62
7
100
AcDbLine
 10
5.270059
 20
8.286297
 30
0.0
 11
2.095694
 21
8.286297
 31
0.0
  0
LINE
  5
16d
100
AcDbEntity
  8
0
 62
7
100
AcDbLine
 10
1.298284
 20
9.224244
 30
0.0
 11
24.863135
 21
9.224244
 31
0.0
  0
LINE
  5
16e
100
AcDbEntity
  8
0
 62
7
100
AcDbLine
 10
24.863135
 20
9.224244
 30
0.0
 11
24.863135
 21
-0.005552
 31
0.0
  0
LINE
  5
16f
100
AcDbEntity
  8
0
 62
7
100
AcDbLine
 10
24.863135
 20
-0.005552
 30
0.0
 11
1.298284
 21
-0.005552
 31
0.0
  0
LINE
  5
170
100
AcDbEntity
  8
0
 62
7
100
AcDbLine
 10
1.298284
 20
-0.005552
 30
0.0
 11
1.298284
 21
9.224244
 31
0.0
  0
ENDSEC
  0
SECTION
  2
OBJECTS
  0
DICTIONARY
  5
C
330
0
100
AcDbDictionary
  3
ACAD_GROUP
350
D
  3
ACAD_MLINESTYLE
350
17
  0
DICTIONARY
  5
D
330
C
100
AcDbDictionary
  0
DICTIONARY
  5
1A
330
C
100
AcDbDictionary
  0
DICTIONARY
  5
17
330
C
100
AcDbDictionary
  3
STANDARD
350
18
  0
DICTIONARY
  5
19
330
C
100
AcDbDictionary
  0
ENDSEC
  0
EOF
